<svg viewBox="0 0 114 42" fill="none" xmlns="http://www.w3.org/2000/svg">
<g id="_2312968832608">
<g id="Union">
<path fill-rule="evenodd" clip-rule="evenodd" d="M74.7372 26.3318C74.7372 24.4351 76.2762 22.8975 78.1746 22.8975C80.0731 22.8975 81.6121 24.4351 81.6121 26.3318C81.6121 28.2286 80.0731 29.7662 78.1746 29.7662C76.2762 29.7662 74.7372 28.2286 74.7372 26.3318ZM75.3425 26.3318C75.3425 24.7691 76.6105 23.5023 78.1746 23.5023C79.7388 23.5023 81.0067 24.7691 81.0067 26.3318C81.0067 27.8945 79.7388 29.1614 78.1746 29.1614C76.6105 29.1614 75.3425 27.8945 75.3425 26.3318Z" fill="var(--fill-0, #B04F9C)"/>
<path fill-rule="evenodd" clip-rule="evenodd" d="M73.2812 26.3335C73.2812 23.0778 75.9228 20.4385 79.1815 20.4385C82.4402 20.4385 85.0818 23.0778 85.0818 26.3335C85.0818 29.5892 82.4402 32.2285 79.1815 32.2285C75.9228 32.2285 73.2812 29.5892 73.2812 26.3335ZM74.3202 26.3335C74.3202 23.6511 76.4967 21.4766 79.1815 21.4766C81.8663 21.4766 84.0428 23.6511 84.0428 26.3335C84.0428 29.0159 81.8663 31.1904 79.1815 31.1904C76.4967 31.1904 74.3202 29.0159 74.3202 26.3335Z" fill="var(--fill-0, #B04F9C)"/>
</g>
<path id="Union_2" d="M38.5381 28.3418C43.9531 26.1499 56.2606 26.353 63.1641 26.6436C63.1881 28.6877 63.294 32.5555 62.374 34.1064C61.9669 34.7927 61.3981 35.3993 60.6875 35.9297C59.9694 36.4598 59.1398 36.9219 58.1855 37.3086C57.2304 37.6953 56.2124 38.0133 55.1318 38.2666C54.0521 38.5162 52.9303 38.7017 51.7734 38.8213C46.8903 39.3278 41.2092 39.0016 36.251 39.001L36.2461 42L33.7158 41.999C33.7175 40.3296 33.7012 38.6608 33.7012 36.9922H33.7363C39.1489 36.9922 45.8528 37.439 51.1201 36.834C52.0849 36.7238 53.0209 36.5542 53.9219 36.3242C54.8225 36.0912 55.6713 35.7981 56.4678 35.4424C57.2637 35.0862 57.9555 34.6609 58.5547 34.1729C59.1478 33.685 59.6187 33.1238 59.9619 32.4941C60.6112 31.2795 60.4727 29.9977 60.4727 28.6582C55.987 28.5334 39.9174 27.371 36.7617 33.1562L36.7578 33.1641H33.7832C33.8651 32.5824 34.0549 32.0413 34.3486 31.5439C34.7603 30.8599 35.3253 30.2513 36.0361 29.7207C36.7541 29.1905 37.5841 28.7279 38.5381 28.3418ZM20.2051 26.5996C20.5645 26.5996 20.8961 26.635 21.2148 26.7021C21.5332 26.7729 21.8107 26.8684 22.0479 26.9883C22.2853 27.1087 22.4757 27.2536 22.6045 27.416C22.8919 27.7665 22.8076 28.2442 22.8076 28.6768C16.8817 28.6768 10.9403 28.5965 5.0166 28.7305L22.0342 40.3203C22.0802 40.5721 22.0219 40.8146 21.8555 41.0469C21.4928 41.5937 20.5913 41.9307 19.9502 41.9307C16.6741 41.9307 13.4178 41.918 10.1436 41.9287C7.84401 41.9361 5.52806 41.9688 3.21973 41.9688C2.86008 41.9687 2.52786 41.9334 2.20898 41.8662C1.89065 41.7955 1.61314 41.7 1.37598 41.5801C1.13873 41.4598 0.94902 41.3147 0.820312 41.1523C0.532922 40.8018 0.617188 40.3242 0.617188 39.8916C5.65626 39.8916 12.3153 39.9416 17.2129 39.8652L1.39062 28.248C1.34462 27.9963 1.40291 27.7538 1.56934 27.5215C1.93206 26.9746 2.83349 26.6377 3.47461 26.6377C6.7507 26.6377 10.007 26.6503 13.2812 26.6396C15.5808 26.6323 17.8968 26.5996 20.2051 26.5996ZM80.0439 41.9375H78.3174V34.5703H80.0439V41.9375ZM95.7734 41.9375H94.0479V34.5703H95.7734V41.9375ZM103.947 26.7314C104.722 26.7315 105.507 26.7964 106.301 26.9229C107.095 27.0494 107.866 27.245 108.607 27.5088C109.349 27.7763 110.048 28.1119 110.704 28.5205C111.359 28.9291 111.929 29.4173 112.422 29.9775C112.91 30.5378 113.298 31.1814 113.58 31.9043C113.857 32.6272 114 33.4377 114 34.3271V41.918H112.274V35.8379C112.274 35.0186 112.154 34.2727 111.923 33.6074C111.687 32.9423 111.364 32.3493 110.957 31.834C110.546 31.3184 110.071 30.8694 109.524 30.4932C108.977 30.1171 108.395 29.8077 107.776 29.5615C107.158 29.3187 106.515 29.139 105.853 29.0225C105.191 28.9057 104.536 28.8457 103.89 28.8457C100.558 28.8457 97.2256 28.8555 93.8936 28.8555V28.1201C93.8936 27.9213 93.9412 27.7362 94.0371 27.5664C94.1281 27.4002 94.2622 27.2518 94.4297 27.1289C94.5972 27.006 94.7928 26.9082 95.0176 26.8359C95.2427 26.7673 95.4778 26.7314 95.7314 26.7314H103.947ZM94.7861 6.20996C94.7861 7.04317 94.9106 7.80189 95.1504 8.47852C95.3947 9.15496 95.7292 9.75813 96.1514 10.2822C96.5777 10.8067 97.071 11.2637 97.6377 11.6465C98.2049 12.0288 98.809 12.3434 99.4502 12.5938C100.092 12.8408 100.758 13.0231 101.445 13.1416C102.132 13.2604 102.811 13.3213 103.481 13.3213C106.937 13.3213 110.393 13.3115 113.848 13.3115V14.0596C113.848 14.2618 113.798 14.4493 113.698 14.6221C113.604 14.7911 113.466 14.9423 113.292 15.0674C113.118 15.1924 112.915 15.2918 112.682 15.3652C112.448 15.435 112.205 15.4716 111.942 15.4717H103.422C102.618 15.4717 101.804 15.4051 100.98 15.2764C100.157 15.1477 99.3578 14.9499 98.5889 14.6816C97.8198 14.4096 97.0951 14.0669 96.415 13.6514C95.7354 13.2358 95.1441 12.7397 94.6328 12.1699C94.127 11.6003 93.7254 10.9459 93.4326 10.2109C93.145 9.4757 92.9961 8.65165 92.9961 7.74707V0.0263672H94.7861V6.20996ZM64.0303 6.20898C64.0303 7.04187 64.1547 7.80015 64.3945 8.47656C64.6389 9.1529 64.9743 9.75532 65.3965 10.2793C65.8228 10.8036 66.3152 11.2609 66.8818 11.6436C67.4491 12.0259 68.0531 12.3405 68.6943 12.5908C69.3359 12.8378 70.0023 13.0201 70.6895 13.1387C71.3761 13.2574 72.0551 13.3184 72.7256 13.3184C76.181 13.3184 79.6366 13.3086 83.0918 13.3086V14.0566C83.0918 14.2587 83.0429 14.4465 82.9434 14.6191C82.8492 14.7881 82.7097 14.9385 82.5361 15.0635C82.3624 15.1885 82.159 15.2879 81.9258 15.3613C81.6924 15.4311 81.4495 15.4677 81.1865 15.4678H72.666C71.862 15.4678 71.0482 15.4021 70.2246 15.2734C69.4009 15.1448 68.6021 14.946 67.833 14.6777C67.0639 14.4058 66.3393 14.0639 65.6592 13.6484C64.9796 13.233 64.3892 12.7367 63.8779 12.167C63.3719 11.5973 62.9696 10.9431 62.6768 10.208C62.3891 9.47296 62.2402 8.64946 62.2402 7.74512V0.0263672H64.0303V6.20898ZM2.61426 0C4.92259 0 7.23854 0.031858 9.53809 0.0390625C12.8123 0.0495537 16.0686 0.0380859 19.3447 0.0380859C19.9858 0.038103 20.8873 0.368339 21.25 0.90625C21.4165 1.13478 21.4747 1.37345 21.4287 1.62109L5.60547 13.0479C10.5032 13.123 17.163 13.0742 22.2021 13.0742C22.2022 13.4996 22.2861 13.9688 21.999 14.3135C21.8703 14.4733 21.6798 14.616 21.4424 14.7344C21.2052 14.8523 20.9278 14.947 20.6094 15.0166C20.2907 15.0826 19.959 15.1172 19.5996 15.1172C17.2913 15.1172 14.9753 15.0844 12.6758 15.0771C9.40152 15.0666 6.14522 15.0791 2.86914 15.0791C2.22806 15.0791 1.32655 14.7479 0.963867 14.21C0.797577 13.9816 0.739273 13.7435 0.785156 13.4961L17.8018 2.0957C11.8783 1.96394 5.93743 2.04297 0.0117188 2.04297C0.0117188 1.61748 -0.0725468 1.1475 0.214844 0.802734C0.343575 0.643033 0.533239 0.500181 0.770508 0.381836C1.00768 0.263846 1.28516 0.170175 1.60352 0.100586C1.92243 0.0344895 2.25464 3.38161e-06 2.61426 0ZM30.6934 6.0498C30.6934 6.86276 30.8178 7.60248 31.0576 8.2627C31.302 8.92303 31.6373 9.51185 32.0596 10.0234C32.4859 10.5351 32.9784 10.9811 33.5449 11.3545C34.1122 11.7277 34.7161 12.035 35.3574 12.2793C35.999 12.5203 36.6654 12.6988 37.3525 12.8145C38.0392 12.9304 38.7182 12.9893 39.3887 12.9893C42.8441 12.9893 46.2995 12.9805 49.7549 12.9805V13.71C49.7549 13.9071 49.7059 14.0903 49.6064 14.2588C49.5122 14.4238 49.373 14.5713 49.1992 14.6934C49.0255 14.8154 48.822 14.9117 48.5889 14.9834C48.3555 15.0515 48.1126 15.0879 47.8496 15.0879H39.3291C38.5251 15.0879 37.7113 15.0231 36.8877 14.8975C36.064 14.7718 35.2651 14.5782 34.4961 14.3164C33.727 14.0509 33.0023 13.7171 32.3223 13.3115C31.6428 12.906 31.0522 12.4221 30.541 11.8662C30.0349 11.3101 29.6327 10.6707 29.3398 9.95312C29.0523 9.23576 28.9034 8.43236 28.9033 7.5498V0.0146484H30.6934V6.0498ZM49.6025 7.26855H47.8125V0.0166016H49.6025V7.26855ZM113.687 7.26855H111.896V0.0166016H113.687V7.26855Z" fill="var(--fill-0, #483762)"/>
</g>
</svg>
