<svg xmlns="http://www.w3.org/2000/svg" viewBox="0 0 220 36" fill="none">
  <path d="M16.4 7.2 13.5 14h5.8L16.4 7.2Zm-4.9-3.8h9.9l8 18.5h-6.2l-1.6-3.9H11.2l-1.6 3.9H3.5l8-18.5Z" fill="white"/>
  <path d="M35.6 8.1h5.6v13.8h-5.6V8.1Zm0-5.4h5.6v3.9h-5.6V2.7Z" fill="white"/>
  <path d="M45.8 8.1h5.4v2c1.1-1.5 2.8-2.4 5-2.4 4 0 6.2 2.6 6.2 6.6v7.6H57v-6.7c0-1.8-1-2.9-2.8-2.9-1.9 0-3 1.1-3 3.1v6.5h-5.4V8.1Z" fill="white"/>
  <path d="M66.1 8.1h5.5l2.6 8.5 2.6-8.5h5.5l-5.3 13.8h-5.7L66.1 8.1Z" fill="white"/>
  <path d="M94.9 13.4c-.2-1.6-1.3-2.6-2.9-2.6-1.7 0-2.9 1-3.2 2.6h6.1Zm5 2.8H88.8c.3 1.8 1.6 2.9 3.4 2.9 1.4 0 2.5-.6 3-1.6h4.5c-.8 2.9-3.7 4.8-7.6 4.8-5.3 0-8.8-3-8.8-7.5 0-4.6 3.5-7.6 8.7-7.6 5.2 0 8.3 2.9 8.3 7.6 0 .4 0 .8-.1 1.4Z" fill="white"/>
  <path d="M105.1 8.1h5.2v2.3c.8-1.6 2.2-2.5 4.2-2.5h.8v4.9h-1.2c-2.3 0-3.6 1-3.6 3.7v5.4h-5.4V8.1Z" fill="white"/>
  <path d="M121.2 18.8h3.2c1.6 0 2.6-.7 2.6-1.9 0-1.2-1-1.9-2.6-1.9h-3.2v3.8Zm0-8h2.8c1.5 0 2.3-.6 2.3-1.7 0-1-.8-1.6-2.3-1.6h-2.8v3.3Zm-5.8-7.4h9.8c4.2 0 6.8 2.1 6.8 5.2 0 2.1-1.1 3.5-3.1 4.2 2.3.6 3.7 2.2 3.7 4.6 0 3.4-2.8 5.6-7.3 5.6h-9.9V3.4Z" fill="white"/>
  <path d="M146.5 15c0-2-1.2-3.3-3-3.3s-3 1.3-3 3.3c0 2 1.2 3.3 3 3.3s3-1.3 3-3.3Zm-11.3 0c0-4.4 3.5-7.6 8.3-7.6s8.3 3.2 8.3 7.6c0 4.4-3.5 7.6-8.3 7.6s-8.3-3.2-8.3-7.6Z" fill="white"/>
  <path d="M162.2 15.1c0-2-1.2-3.3-3-3.3-1.8 0-3 1.3-3 3.3 0 2 1.2 3.3 3 3.3 1.8 0 3-1.3 3-3.3Zm-11.3-7h5.2v1.9c1-1.4 2.5-2.2 4.6-2.2 4 0 6.8 3 6.8 7.4 0 4.5-2.8 7.5-6.8 7.5-2 0-3.6-.8-4.6-2.1v6.4h-5.2V8.1Z" fill="white"/>
  <path d="M170.6 8.1h5.2v2.3c.8-1.6 2.2-2.5 4.2-2.5h.8v4.9h-1.2c-2.3 0-3.6 1-3.6 3.7v5.4h-5.4V8.1Z" fill="white"/>
  <path d="M192.6 15c0-2-1.2-3.3-3-3.3s-3 1.3-3 3.3c0 2 1.2 3.3 3 3.3s3-1.3 3-3.3Zm-11.3 0c0-4.4 3.5-7.6 8.3-7.6s8.3 3.2 8.3 7.6c0 4.4-3.5 7.6-8.3 7.6s-8.3-3.2-8.3-7.6Z" fill="white"/>
</svg>
